<svg xmlns="http://www.w3.org/2000/svg" xmlns:xlink="http://www.w3.org/1999/xlink" width="75.015" height="69.098" viewBox="0 0 75.015 69.098"><defs><linearGradient id="a" x1="-0.082" x2="1.284" y2="1" gradientUnits="objectBoundingBox"><stop offset="0" stop-color="#7ef5e0"/><stop offset="0.508" stop-color="#73e6f5"/><stop offset="1" stop-color="#6dabee"/></linearGradient></defs><path d="M16181.665,17212.779l.718-1.457a1.916,1.916,0,0,0,1.173.375,1.32,1.32,0,0,0,.965-.385,5.059,5.059,0,0,0,.853-1.5l.307-.7-3.941-9.455h2.1l2.773,7.166,2.609-7.166h1.93l-4.322,10.891a5.7,5.7,0,0,1-1.324,2.186,2.791,2.791,0,0,1-1.951.662A2.834,2.834,0,0,1,16181.665,17212.779Zm-50.471-1.777,22.568-55.148h-29.85V17144.3h44.681v8.191l-23.021,58.514Zm61.7-2.414a3.008,3.008,0,0,1-1.35-1.691l1.385-.814a2.311,2.311,0,0,0,.922,1.143,2.684,2.684,0,0,0,1.475.389,2.174,2.174,0,0,0,1.233-.314,1.01,1.01,0,0,0,.459-.875.966.966,0,0,0-.281-.709,1.982,1.982,0,0,0-.7-.441c-.281-.109-.671-.234-1.159-.377a12.684,12.684,0,0,1-1.558-.523,2.7,2.7,0,0,1-1.009-.744,1.985,1.985,0,0,1-.424-1.324,2.547,2.547,0,0,1,.476-1.523,3.019,3.019,0,0,1,1.281-1,4.525,4.525,0,0,1,1.773-.342,4.1,4.1,0,0,1,2.186.557,2.708,2.708,0,0,1,1.216,1.516l-1.385.791a2.046,2.046,0,0,0-.8-.922,2.419,2.419,0,0,0-1.268-.32,2.058,2.058,0,0,0-1.134.277.9.9,0,0,0-.433.8.826.826,0,0,0,.264.641,2.02,2.02,0,0,0,.653.4c.264.1.636.215,1.116.35a11.639,11.639,0,0,1,1.593.541,2.782,2.782,0,0,1,1.064.809,2.171,2.171,0,0,1,.44,1.42,2.553,2.553,0,0,1-1,2.107,4.062,4.062,0,0,1-2.6.791A4.617,4.617,0,0,1,16192.9,17208.588Zm-18.37.268a3.018,3.018,0,0,1-1.251-.986,2.628,2.628,0,0,1-.467-1.57,2.567,2.567,0,0,1,1.134-2.193,4.862,4.862,0,0,1,2.9-.811,8.016,8.016,0,0,1,2.033.27v-.035a2.926,2.926,0,0,0-.5-1.883,1.86,1.86,0,0,0-1.514-.605,2.443,2.443,0,0,0-1.359.355,2.79,2.79,0,0,0-.926,1.018l-1.367-.793a3.486,3.486,0,0,1,1.458-1.588,4.47,4.47,0,0,1,2.3-.592,3.506,3.506,0,0,1,3.747,3.832V17209h-1.605a10.119,10.119,0,0,0-.091-1.15,3.038,3.038,0,0,1-2.769,1.35A4.261,4.261,0,0,1,16174.526,17208.855Zm.787-3.742a1.315,1.315,0,0,0-.6,1.15,1.264,1.264,0,0,0,.488,1.051,1.972,1.972,0,0,0,1.276.391,2.628,2.628,0,0,0,1.692-.566,1.921,1.921,0,0,0,.7-1.576v-.592a7.855,7.855,0,0,0-1.891-.273A2.875,2.875,0,0,0,16175.313,17205.113Zm-14.888,3.885v-13.174h3.851a7.677,7.677,0,0,1,3.474.773,5.754,5.754,0,0,1,2.432,2.268,7.543,7.543,0,0,1,0,7.082,5.82,5.82,0,0,1-2.423,2.268,7.544,7.544,0,0,1-3.482.783Zm1.925-1.691h1.675a5.064,5.064,0,0,0,3.682-1.285,5.608,5.608,0,0,0,0-7.238,5.064,5.064,0,0,0-3.682-1.285h-1.675Z" transform="translate(-16123.913 -17144.297)" fill="url(#a)"/></svg>