<svg xmlns="http://www.w3.org/2000/svg" width="85" height="85" viewBox="0 0 85 85"><g transform="translate(-1384.859 -22759)"><circle cx="42.5" cy="42.5" r="42.5" transform="translate(1384.859 22759)" fill="#fb6c28"/><g transform="translate(1404.359 22805.207)"><g transform="translate(0 -0.001)"><path d="M80.708,96.57c-1.71,0-3.838-1.506-5.9-2.966-.768-.543-1.493-1.056-2.124-1.435-2.044-1.226-4.119-1.9-8.817,2.328-4.617,4.156-8.14,1.031-10.471-1.038-.351-.312-.685-.608-1-.862a4.353,4.353,0,0,0-4.137-.86.684.684,0,0,1-.5-1.271,5.711,5.711,0,0,1,5.495,1.063c.334.267.685.579,1.055.907,2.316,2.055,4.941,4.382,8.648,1.044C67.812,89.111,70.55,89.289,73.393,91c.674.4,1.42.933,2.209,1.491,1.849,1.308,4.15,2.937,5.356,2.692a6.2,6.2,0,0,0,2.891-1.543c.578-.445,1.3-1,2.289-1.66,2.577-1.718,6-2.934,7.046-1.906a.684.684,0,1,1-.96.974c-.332-.134-2.568.23-5.328,2.07-.953.635-1.651,1.173-2.212,1.606a7.492,7.492,0,0,1-3.454,1.8A2.579,2.579,0,0,1,80.708,96.57Z" transform="translate(-47.361 -89.692)" fill="#fff" stroke="#fff" stroke-width="1"/><path d="M80.708,107.831c-1.71,0-3.838-1.5-5.9-2.967-.768-.543-1.493-1.056-2.124-1.435-2.044-1.226-4.119-1.9-8.817,2.328-4.617,4.156-8.14,1.03-10.471-1.038-.351-.312-.685-.608-1-.862a4.356,4.356,0,0,0-4.137-.86.684.684,0,0,1-.5-1.271,5.714,5.714,0,0,1,5.495,1.064c.334.266.685.578,1.055.906,2.316,2.055,4.941,4.383,8.648,1.045,4.855-4.37,7.593-4.191,10.436-2.485.674.406,1.42.933,2.209,1.491,1.849,1.308,4.15,2.938,5.356,2.692a6.2,6.2,0,0,0,2.891-1.543c.578-.446,1.3-1,2.289-1.661,2.577-1.717,6-2.935,7.046-1.906a.684.684,0,1,1-.96.974c-.332-.133-2.568.231-5.328,2.071-.953.635-1.651,1.173-2.212,1.606a7.5,7.5,0,0,1-3.454,1.8A2.63,2.63,0,0,1,80.708,107.831Z" transform="translate(-47.361 -93.252)" fill="#fff" stroke="#fff" stroke-width="1"/><path d="M80.708,118.389c-1.71,0-3.838-1.506-5.9-2.966-.767-.543-1.491-1.056-2.123-1.435-2.045-1.227-4.12-1.9-8.817,2.328-4.617,4.156-8.139,1.031-10.471-1.037-.351-.313-.685-.609-1-.862a4.353,4.353,0,0,0-4.137-.86.684.684,0,0,1-.5-1.271,5.713,5.713,0,0,1,5.5,1.063c.334.267.685.578,1.056.907,2.315,2.054,4.94,4.382,8.648,1.044,4.856-4.369,7.593-4.189,10.436-2.485.674.406,1.42.933,2.209,1.491,1.848,1.308,4.15,2.938,5.357,2.692a6.2,6.2,0,0,0,2.891-1.543c.578-.445,1.3-1,2.289-1.66,2.577-1.718,6-2.934,7.046-1.906a.684.684,0,1,1-.96.974c-.335-.133-2.568.23-5.328,2.07-.953.635-1.651,1.173-2.212,1.606a7.492,7.492,0,0,1-3.454,1.8A2.579,2.579,0,0,1,80.708,118.389Z" transform="translate(-47.361 -96.59)" fill="#fff" stroke="#fff" stroke-width="1"/></g></g><path d="M240.627,463.5a7.143,7.143,0,0,0-.724-2.779l-.516-.893-5.477-9.487a.531.531,0,0,0-.92,0l-5.477,9.487-.516.893a7.144,7.144,0,0,0-.724,2.779c-.007.131-.02.26-.02.392a7.2,7.2,0,0,0,14.393,0C240.647,463.762,240.634,463.633,240.627,463.5Z" transform="translate(1178.148 22327.387)" fill="#fff"/><path d="M240.627,463.5a7.143,7.143,0,0,0-.724-2.779l-.516-.893-5.477-9.487a.531.531,0,0,0-.92,0l-5.477,9.487-.516.893a7.144,7.144,0,0,0-.724,2.779c-.007.131-.02.26-.02.392a7.2,7.2,0,0,0,14.393,0C240.647,463.762,240.634,463.633,240.627,463.5Z" transform="translate(1193.901 22327.387)" fill="#fff"/><path d="M240.627,463.5a7.143,7.143,0,0,0-.724-2.779l-.516-.893-5.477-9.487a.531.531,0,0,0-.92,0l-5.477,9.487-.516.893a7.144,7.144,0,0,0-.724,2.779c-.007.131-.02.26-.02.392a7.2,7.2,0,0,0,14.393,0C240.647,463.762,240.634,463.633,240.627,463.5Z" transform="translate(1209.655 22327.387)" fill="#fff"/></g></svg>