<svg xmlns="http://www.w3.org/2000/svg" width="85" height="85" viewBox="0 0 85 85"><g transform="translate(7495.678 -27.801)"><g transform="translate(-7495.678 27.801)"><circle cx="42.5" cy="42.5" r="42.5" fill="#19afc0"/></g><g transform="translate(-7478.592 44.981)"><path d="M32.407,7A25.413,25.413,0,0,0,7,31.983v.439a25.414,25.414,0,0,0,24.986,25.4h.436a25.414,25.414,0,0,0,25.4-24.986V32.4A25.414,25.414,0,0,0,32.842,7Z" transform="translate(-7 -7)" fill="none" stroke="#fff" stroke-width="4" fill-rule="evenodd"/><path d="M55.191,36.6a1.86,1.86,0,0,1-3.719,0,14.811,14.811,0,0,0-1.744-7l2.452-2.453q.139-.139.262-.287a18.506,18.506,0,0,1,2.749,9.74ZM36.6,18a18.509,18.509,0,0,1,9.735,2.749q-.149.123-.287.262L43.6,23.463A14.882,14.882,0,0,0,21.719,36.6,1.86,1.86,0,0,1,18,36.6,18.6,18.6,0,0,1,36.6,18Z" transform="translate(-11.182 -11.182)" fill="#fff"/><path d="M1.859,0a1.86,1.86,0,0,1,1.86,1.86V17.976a1.86,1.86,0,0,1-3.719,0V1.86A1.86,1.86,0,0,1,1.859,0Z" transform="translate(37.931 10.269) rotate(45)" fill="#fff" stroke="#fff" stroke-width="1"/><path d="M49.438,45.719h0A3.719,3.719,0,0,0,45.719,42h0A3.719,3.719,0,0,0,42,45.719h0a3.719,3.719,0,0,0,3.719,3.719h0a3.719,3.719,0,0,0,3.719-3.719Z" transform="translate(-20.305 -20.305)" fill="#fff" stroke="#fff" stroke-width="1" fill-rule="evenodd"/></g></g></svg>