<svg xmlns="http://www.w3.org/2000/svg" xmlns:xlink="http://www.w3.org/1999/xlink" width="506.012" height="35.381" viewBox="0 0 506.012 35.381"><defs><clipPath id="a"><rect width="506.012" height="35.381" fill="none"/></clipPath></defs><path d="M22.724.041V13.917H6.97V.041H0V34.424H6.97V20.456H22.724V34.424h6.97V.041Z" transform="translate(0.002 0.332)" fill="#070203"/><g transform="translate(0 0)"><g clip-path="url(#a)"><path d="M26.949,19.715c0,5.587-2.784,8.573-7.822,8.573-5.065,0-7.849-3.068-7.849-8.811V.06H4.3V19.715c0,9.672,5.367,15.213,14.737,15.213,9.452,0,14.883-5.642,14.883-15.5V.042h-6.97Z" transform="translate(35.075 0.338)" fill="#070203"/><path d="M47.932,23.689,40.128.041h-5.7l-7.8,23.648L19.035.068H11.607l11.98,34.364h5.779l7.822-22.577L45,34.432h5.825L62.778.068H55.543Z" transform="translate(94.704 0.328)" fill="#070203"/><path d="M24.687,19.607H37.372V13.343H24.687V6.309H43.105V.044h-25.3V34.381H43.765V28.116H24.687Z" transform="translate(145.298 0.354)" fill="#070203"/><rect width="6.878" height="34.337" transform="translate(197.384 0.376)" fill="#070203"/><path d="M23.059.042,7.919,34.4h7.116l3.132-7.153H33.9L36.989,34.4H44.3L29.2.042Zm-2.3,21,5.257-12.31L31.3,21.043Z" transform="translate(64.61 0.338)" fill="#070203"/><path d="M58.827,21.786c-.064.238-.1.385-.11.449-.33,1.191-.623,2.336-.9,3.435s-.513,2.162-.714,3.16a52.845,52.845,0,0,0-1.786-7.565L49.091.052H44.64L38.723,20.907q-1.058,3.682-2.024,7.922a59.791,59.791,0,0,0-1.539-7.181L29.473.052H24.93L34.409,34.49h4.405l5.807-20.507q1.168-4.08,2.244-8.774c.311,1.493.632,2.922.98,4.286s.779,2.931,1.291,4.708l5.88,20.287H59.45L68.856.052H64.478Z" transform="translate(203.402 0.42)" fill="#070203"/><path d="M43.1.052,29.814,34.49h4.552l3.673-10.011H52.2L55.981,34.49h4.662L47.033.052ZM39.367,20.815,43.5,9.706q.893-2.445,1.539-4.589l.275.788q.811,2.473,1.374,3.874L50.8,20.815Z" transform="translate(243.25 0.42)" fill="#070203"/><path d="M33.25,3.853H43.691V34.481h4.314V3.853h9.947l.522-3.8H33.754Z" transform="translate(271.285 0.423)" fill="#070203"/><path d="M56.79,31.1a16.42,16.42,0,0,1-4.131.522,11.783,11.783,0,0,1-6.649-1.759A10.355,10.355,0,0,1,42.1,25a19.057,19.057,0,0,1-1.264-7.217,19.461,19.461,0,0,1,1.3-7.446,10.527,10.527,0,0,1,3.828-4.873A10.7,10.7,0,0,1,52.11,3.755a13.935,13.935,0,0,1,4.057.586,21.131,21.131,0,0,1,4.021,1.694L61.544,2.5A19.655,19.655,0,0,0,57.138.687,18.968,18.968,0,0,0,51.973,0a15.214,15.214,0,0,0-8.4,2.262,14.321,14.321,0,0,0-5.395,6.356,22.78,22.78,0,0,0-1.859,9.525,21.27,21.27,0,0,0,1.832,9.2A13.271,13.271,0,0,0,43.574,33.3a16.964,16.964,0,0,0,8.692,2.079,20.251,20.251,0,0,0,9.8-2.326l-1.1-3.517A22.606,22.606,0,0,1,56.79,31.1" transform="translate(296.332 -0.004)" fill="#070203"/><path d="M61.9,14.7H44.017V.052H39.7V34.481h4.314v-16H61.9v16h4.3V.052H61.9Z" transform="translate(323.939 0.422)" fill="#070203"/><path d="M44.477,34.489h4.314V18.534h13.2V14.843h-13.2V3.88h14.1L63.372.052H44.477Z" transform="translate(362.888 0.416)" fill="#070203"/><rect width="4.314" height="34.438" transform="translate(432.2 0.467)" fill="#070203"/><path d="M48.226,3.853H58.668V34.481h4.314V3.853h9.947l.522-3.8H48.73Z" transform="translate(393.476 0.423)" fill="#070203"/><path d="M72.448,19.545a10.656,10.656,0,0,0-6-2.8,9.614,9.614,0,0,0,5.01-3.013,7.921,7.921,0,0,0,1.9-5.358,8.119,8.119,0,0,0-1.182-4.378,7.781,7.781,0,0,0-3.361-2.949A11.622,11.622,0,0,0,63.738,0a13.622,13.622,0,0,0-5.477,1.072,14.228,14.228,0,0,0-4.186,2.684l1.447,3.233A12.5,12.5,0,0,1,58.929,4.6,9.7,9.7,0,0,1,63.3,3.563a5.747,5.747,0,0,1,4.112,1.429,5.049,5.049,0,0,1,1.511,3.856,6.058,6.058,0,0,1-.971,3.407,6.442,6.442,0,0,1-2.775,2.317,10.01,10.01,0,0,1-4.241.833H58.554V18.95h3.48q4.067,0,6.2,1.713a5.694,5.694,0,0,1,2.134,4.708,6.553,6.553,0,0,1-.833,3.334,5.751,5.751,0,0,1-2.455,2.253,8.724,8.724,0,0,1-3.938.815,13.168,13.168,0,0,1-4.744-.9,15.693,15.693,0,0,1-4.213-2.409l-1.328,3.755a15.538,15.538,0,0,0,4.818,2.354,19.346,19.346,0,0,0,5.532.806,14.327,14.327,0,0,0,6.082-1.209,9.036,9.036,0,0,0,5.468-8.582,8.033,8.033,0,0,0-2.308-6.045" transform="translate(431.256 -0.004)" fill="#070203"/></g></g></svg>