<svg xmlns="http://www.w3.org/2000/svg" width="85" height="85" viewBox="0 0 85 85"><g transform="translate(7766 -27.535)"><g transform="translate(-7766 27.535)"><g transform="translate(0)"><circle cx="42.5" cy="42.5" r="42.5" fill="#f34e51"/></g></g><g transform="translate(-7766 27.535)"><g transform="translate(0)"><circle cx="42.5" cy="42.5" r="42.5" fill="#f34e51"/></g></g><g transform="translate(-7719.088 39.935) rotate(25)"><g transform="translate(0 0.001)"><g transform="translate(0 7.067)"><path d="M11.613,29.786H3.3a3.3,3.3,0,0,1-3.3-3.3V3.3A3.305,3.305,0,0,1,3.3,0h8.313a3.306,3.306,0,0,1,3.3,3.3V26.484a3.306,3.306,0,0,1-3.3,3.3ZM3.3.711A2.593,2.593,0,0,0,.71,3.3V26.485a2.593,2.593,0,0,0,2.59,2.59h8.313a2.593,2.593,0,0,0,2.59-2.59V3.3A2.593,2.593,0,0,0,11.613.71Z" fill="#fff" stroke="#fff" stroke-width="2"/></g><g transform="translate(1.667 0)"><path d="M11.578,7.778H0L1.466,1.466A1.881,1.881,0,0,1,3.308,0H8.139a2.053,2.053,0,0,1,2.008,1.6ZM.9,7.066h9.786L9.45,1.759A1.344,1.344,0,0,0,8.135.715H3.308a1.173,1.173,0,0,0-1.148.912Z" fill="#fff" stroke="#fff" stroke-width="2"/></g><g transform="translate(1.671 36.137)"><path d="M8.135,7.775H3.308A1.882,1.882,0,0,1,1.466,6.312L0,0H11.578L10.142,6.18a2.053,2.053,0,0,1-2.007,1.6ZM.9.712,2.159,6.151a1.174,1.174,0,0,0,1.149.912H8.135A1.344,1.344,0,0,0,9.45,6.019L10.682.712Z" fill="#fff" stroke="#fff" stroke-width="2"/></g><rect width="1.657" height="5.918" rx="0.828" transform="translate(14.203 17.383)" fill="#fff" stroke="#fff" stroke-width="2"/></g></g><path d="M0,0H45.484" transform="translate(-7746.241 94.52)" fill="none" stroke="#fff" stroke-linecap="round" stroke-width="3"/><g transform="translate(-7715.106 75.966)"><path d="M5.87,8.2a6.163,6.163,0,0,0-.3-1.7l-.21-.546L3.131.162c-.083-.216-.292-.216-.375,0L.522,5.96l-.214.546a6.162,6.162,0,0,0-.3,1.7c0,.08-.008.159-.008.24,0,2.429,1.314,4.4,2.935,4.4s2.935-1.969,2.935-4.4A1.836,1.836,0,0,0,5.87,8.2Z" transform="translate(7.862 11.684) rotate(-93)" fill="#fff"/><path d="M4.528,6.337A4.759,4.759,0,0,0,4.3,5.025L4.137,4.6,2.412.125c-.064-.167-.225-.167-.29,0L.4,4.6l-.162.422A4.759,4.759,0,0,0,.006,6.337C0,6.4,0,6.459,0,6.521c0,1.876,1.015,3.4,2.267,3.4S4.534,8.4,4.534,6.521C4.534,6.459,4.53,6.4,4.528,6.337Z" transform="matrix(-0.719, -0.695, 0.695, -0.719, 3.26, 10.285)" fill="#fff"/></g><g transform="translate(-7756.341 62.962)"><path d="M5.362,4.242A5.638,5.638,0,0,1,5.092,5.8L4.9,6.3,2.856,11.6c-.076.2-.267.2-.343,0L.47,6.3.277,5.8a5.637,5.637,0,0,1-.27-1.553C0,4.169,0,4.1,0,4.023,0,1.8,1.2,0,2.685,0S5.37,1.8,5.37,4.023C5.37,4.1,5.365,4.169,5.362,4.242Z" transform="translate(0 10.067) rotate(-87)" fill="#fff"/><path d="M4.142,3.276a4.353,4.353,0,0,1-.209,1.2l-.149.386-1.578,4.1c-.059.153-.206.153-.265,0L.363,4.862.214,4.476a4.353,4.353,0,0,1-.209-1.2C0,3.22,0,3.164,0,3.107,0,1.391.928,0,2.074,0S4.147,1.391,4.147,3.107C4.147,3.164,4.144,3.22,4.142,3.276Z" transform="matrix(0.719, -0.695, 0.695, 0.719, 9.637, 2.882)" fill="#fff"/></g></g></svg>