<svg xmlns="http://www.w3.org/2000/svg" width="85" height="84.951" viewBox="0 0 85 84.951"><g transform="translate(7630.994 -27.801)"><path d="M8.377,10.425a1.749,1.749,0,0,1,1.748,1.748v7.261a5.825,5.825,0,1,1-3.5,0V12.173a1.749,1.749,0,0,1,1.748-1.748" transform="translate(-7609.477 60.751)" fill="#fff"/><path d="M11.214,50.628A11.767,11.767,0,0,1,4.9,29.317l.193-.14V6.818a6.821,6.821,0,1,1,13.641.142V29.384l.182.14A11.766,11.766,0,0,1,11.771,50.64c-.186,0-.371,0-.557-.012m.7-48.064A4.26,4.26,0,0,0,7.662,6.818V29.554A1.834,1.834,0,0,1,6.837,31.1a9.2,9.2,0,0,0,4.5,16.965l.438.009A9.2,9.2,0,0,0,16.95,31.261a1.818,1.818,0,0,1-.776-1.51V6.96a4.247,4.247,0,0,0-4.254-4.4" transform="translate(-7612.856 46.919)" fill="#fff" fill-rule="evenodd"/><g transform="translate(-7630.994 27.801)"><ellipse cx="42.475" cy="42.475" rx="42.475" ry="42.475" fill="#0b63f9"/></g><g transform="translate(-7630.945 27.801)"><ellipse cx="42.475" cy="42.475" rx="42.475" ry="42.475" transform="translate(0)" fill="#0b63f9"/></g><g transform="translate(-7577.99 39.839) rotate(52)"><g transform="translate(0 0.001)"><g transform="translate(0 5.981)"><path d="M9.831,25.211H2.795A2.8,2.8,0,0,1,0,22.417V2.794A2.8,2.8,0,0,1,2.795,0H9.831a2.8,2.8,0,0,1,2.794,2.794V22.417A2.8,2.8,0,0,1,9.831,25.211ZM2.795.6A2.194,2.194,0,0,0,.6,2.8V22.418A2.194,2.194,0,0,0,2.795,24.61H9.831a2.194,2.194,0,0,0,2.192-2.192V2.794A2.194,2.194,0,0,0,9.831.6Z" fill="#fff" stroke="#fff" stroke-width="2"/></g><g transform="translate(1.416 0)"><path d="M9.8,6.584H0L1.241,1.242A1.592,1.592,0,0,1,2.8,0H6.885a1.737,1.737,0,0,1,1.7,1.35Zm-9.041-.6h8.28L8,1.492A1.138,1.138,0,0,0,6.883.608H2.8a.993.993,0,0,0-.972.772Z" fill="#fff" stroke="#fff" stroke-width="2"/></g><g transform="translate(1.416 30.59)"><path d="M6.885,6.581H2.8A1.593,1.593,0,0,1,1.241,5.342L0,0H9.8L8.585,5.231a1.737,1.737,0,0,1-1.7,1.35ZM.758.6,1.827,5.2a.994.994,0,0,0,.972.772H6.884A1.138,1.138,0,0,0,8,5.091L9.04.6Z" fill="#fff" stroke="#fff" stroke-width="2"/></g><rect width="1.403" height="5.009" rx="0.701" transform="translate(12.026 14.713)" fill="#fff" stroke="#fff" stroke-width="2"/></g></g><g transform="translate(-7604.851 77.796)"><path d="M202.878,475.216V493.5c0,3.706,2.428,6.708,5.421,6.708h16.529c2.994,0,5.421-3,5.421-6.708V475.216Z" transform="translate(-200.182 -475.216)" fill="none" stroke="#fff" stroke-miterlimit="10" stroke-width="3.5"/><line x2="32.764" fill="none" stroke="#fff" stroke-linecap="round" stroke-linejoin="round" stroke-width="3.5"/></g></g></svg>