<svg xmlns="http://www.w3.org/2000/svg" width="85.001" height="85" viewBox="0 0 85.001 85"><g transform="translate(6974.965 -27.801)"><g transform="translate(-6974.965 27.801)"><g transform="translate(0 0)"><circle cx="42.5" cy="42.5" r="42.5" transform="translate(0)" fill="#fb6c28"/></g><path d="M52.981,10.021A9.976,9.976,0,0,0,34.694,4.462a1.829,1.829,0,0,0,.5,2.527,1.8,1.8,0,0,0,2.51-.5,6.329,6.329,0,0,1,7.713-2.4A6.4,6.4,0,0,1,43,16.4H1.81a1.822,1.822,0,0,0,0,3.644H43.431a1.733,1.733,0,0,0,.449-.09,9.984,9.984,0,0,0,9.1-9.931" transform="translate(16.009 20.622)" fill="#fff" fill-rule="evenodd"/><path d="M0,10.021a9.976,9.976,0,0,0,18.286,5.558,1.829,1.829,0,0,0-.5-2.527,1.8,1.8,0,0,0-2.51.5,6.329,6.329,0,0,1-7.713,2.4A6.4,6.4,0,0,1,9.983,3.644H51.171a1.822,1.822,0,0,0,0-3.644H9.546A1.733,1.733,0,0,0,9.1.09,9.985,9.985,0,0,0,0,10.021" transform="translate(16.009 47.696)" fill="#fff" fill-rule="evenodd"/><circle cx="3" cy="3" r="3" transform="translate(16.165 26.615)" fill="#fff"/><circle cx="3" cy="3" r="3" transform="translate(43.044 54.489)" fill="#fff"/><circle cx="3" cy="3" r="3" transform="translate(26.121 26.615)" fill="#fff"/><circle cx="3" cy="3" r="3" transform="translate(53 54.489)" fill="#fff"/><circle cx="3" cy="3" r="3" transform="translate(36.076 26.615)" fill="#fff"/></g><circle cx="3" cy="3" r="3" transform="translate(-6941.945 82.29)" fill="#fff"/></g></svg>