<svg xmlns="http://www.w3.org/2000/svg" xmlns:xlink="http://www.w3.org/1999/xlink" width="85" height="85" viewBox="0 0 85 85"><defs><clipPath id="a"><rect width="24.517" height="50.64" fill="#fff"/></clipPath></defs><g transform="translate(-942.712 -22805.168)"><circle cx="42.5" cy="42.5" r="42.5" transform="translate(942.712 22805.168)" fill="#0b63f9"/><g transform="translate(972.281 22822.35)" clip-path="url(#a)"><path d="M8.377,10.425a1.749,1.749,0,0,1,1.748,1.748v7.261a5.825,5.825,0,1,1-3.5,0V12.173a1.749,1.749,0,0,1,1.748-1.748" transform="translate(3.394 13.876)" fill="#fff"/><path d="M11.214,50.628A11.767,11.767,0,0,1,4.9,29.317l.193-.14V6.818a6.821,6.821,0,1,1,13.641.142V29.384l.182.14A11.766,11.766,0,0,1,11.771,50.64c-.186,0-.371,0-.557-.012m.7-48.064A4.26,4.26,0,0,0,7.662,6.818V29.554A1.834,1.834,0,0,1,6.837,31.1a9.2,9.2,0,0,0,4.5,16.965l.438.009A9.2,9.2,0,0,0,16.95,31.261a1.818,1.818,0,0,1-.776-1.51V6.96a4.247,4.247,0,0,0-4.254-4.4" transform="translate(0 0.001)" fill="#fff" fill-rule="evenodd"/></g></g></svg>