<svg xmlns="http://www.w3.org/2000/svg" width="85" height="85" viewBox="0 0 85 85"><g transform="translate(7340.057 -27.801)"><g transform="translate(-7340.057 27.801)"><g transform="translate(0 0)"><circle cx="42.5" cy="42.5" r="42.5" transform="translate(0)" fill="#f34e51"/></g><path d="M47.346,43.889a3.349,3.349,0,0,1-3.012-4.812,3.347,3.347,0,0,1-1.48-4.439,3.349,3.349,0,0,1-1.633-4.067H38.469a3.353,3.353,0,0,1-3.332-3.009q.139-.912.322-1.808a3.352,3.352,0,0,1,3.01-1.881h9.15l1.241-1.241a8.33,8.33,0,0,1,11.769,0l3.252,3.253a10.545,10.545,0,0,1-7.456,18ZM44.776,36.1a1.091,1.091,0,0,0,1.09,1.09h1.479a1.129,1.129,0,0,1,0,2.259,1.091,1.091,0,0,0,0,2.181h9.079a8.287,8.287,0,0,0,5.858-14.148L59.031,24.23a6.073,6.073,0,0,0-8.188-.356H54a1.13,1.13,0,0,1,0,2.259H38.467a1.09,1.09,0,0,0,0,2.18h9.618a1.13,1.13,0,0,1,0,2.259h-3.7a1.091,1.091,0,0,0,0,2.181H46.6a1.129,1.129,0,1,1,0,2.258h-.74A1.091,1.091,0,0,0,44.776,36.1Z" transform="translate(3.285 10.381)" fill="#fff" stroke="#fff" stroke-width="1"/><path d="M10979.729,23653.883l.154-.656h-1.434a43.028,43.028,0,0,1-4.253-2.607h4.646a5.368,5.368,0,0,0,5.369-5.35v-52.334a5.362,5.362,0,0,0-5.281-5.346l-12.22,0q1.207-1.351,2.527-2.6h10.644l-1.54-6.584q1.181-.639,2.405-1.2l2.057,8.836a7.944,7.944,0,0,1,4.028,6.9v10.518h1.063a2.041,2.041,0,0,1,2.044,2.035v15.1a2.042,2.042,0,0,1-2.043,2.043l-1.062,0v22.641a7.974,7.974,0,0,1-4.015,6.9l-.659,2.813Q10980.923,23654.473,10979.729,23653.883Z" transform="translate(-10955.958 -23573.283)" fill="#fff" stroke="#fff" stroke-width="1"/></g></g></svg>